<?xml version="1.0" encoding="utf-8"?>
<!-- Generator: Adobe Illustrator 16.0.0, SVG Export Plug-In . SVG Version: 6.00 Build 0)  -->
<!DOCTYPE svg PUBLIC "-//W3C//DTD SVG 1.1//EN" "http://www.w3.org/Graphics/SVG/1.1/DTD/svg11.dtd">
<svg version="1.1" id="Layer_1" xmlns="http://www.w3.org/2000/svg" xmlns:xlink="http://www.w3.org/1999/xlink" x="0px" y="0px"
	 width="1008px" height="504px" viewBox="0 0 1008 504" enable-background="new 0 0 1008 504" xml:space="preserve">
<g>
	<path fill="#EE2B2F" d="M355.066,232.586v-62.998h11.789v62.998H355.066z"/>
	<path fill="#EE2B2F" d="M419.415,169.499h11.879v63.087h-7.38v0.09l-33.118-42.568v42.479h-11.88v-62.998h9.63l30.869,39.059
		V169.499z"/>
	<path fill="#EE2B2F" d="M458.475,180.388h-19.979v-10.8c18.18,0,33.569,0,51.838,0v10.8h-19.979v52.198h-11.88V180.388z"/>
	<path fill="#EE2B2F" d="M544.514,232.586h-47.159c0-20.969,0-42.028,0-62.998h47.159v11.52h-35.369v14.49h34.109v11.069h-34.109
		v14.219h35.369V232.586z"/>
	<path fill="#EE2B2F" d="M600.492,184.978c-4.229-4.05-10.529-6.3-16.02-6.3c-13.498,0-21.689,10.259-21.689,23.219
		c0,10.35,6.031,21.06,21.689,21.06c4.951,0,9.27-1.08,14.221-5.04v-11.16h-16.109v-10.62h26.998v26.549
		c-6.209,7.109-14.039,11.339-25.109,11.339c-23.668,0-33.299-15.569-33.299-32.129c0-17.729,11.07-34.108,33.299-34.108
		c8.461,0,16.92,3.24,23.4,9.629L600.492,184.978z"/>
	<path fill="#EE2B2F" d="M674.293,232.586h-14.131l-18.359-21.059h-11.43v21.059h-11.879v-63.087c9.99,0,19.979,0.09,29.969,0.09
		c14.85,0.09,22.68,9.99,22.68,20.879c0,8.64-3.961,17.369-15.93,19.799l19.08,21.509V232.586z M630.373,180.658v20.159h18.09
		c7.561,0,10.801-5.04,10.801-10.08c0-5.04-3.33-10.08-10.801-10.08H630.373z"/>
	<path fill="#EE2B2F" d="M723.881,220.707h-32.938l-5.4,11.879h-12.869l28.258-62.998h12.961l28.258,62.998h-12.959L723.881,220.707
		z M707.412,182.818l-11.699,26.819h23.398L707.412,182.818z"/>
	<path fill="#EE2B2F" d="M753.492,180.388h-19.979v-10.8c18.18,0,33.568,0,51.838,0v10.8h-19.979v52.198h-11.881V180.388z"/>
	<path fill="#EE2B2F" d="M839.529,232.586h-47.158c0-20.969,0-42.028,0-62.998h47.158v11.52h-35.367v14.49h34.107v11.069h-34.107
		v14.219h35.367V232.586z"/>
	<path fill="#EE2B2F" d="M904.148,200.547c0.27,15.929-9.449,32.039-31.498,32.039c-7.74,0-17.01,0-24.75,0v-62.998
		c7.74,0,17.01,0,24.75,0C894.25,169.588,903.879,184.978,904.148,200.547z M859.691,221.156h12.959
		c14.309,0,19.979-10.439,19.709-20.699c-0.27-9.81-6.029-19.619-19.709-19.619h-12.959V221.156z"/>
	<path fill="#666766" d="M390.541,316.586h-36.685c0-16.312,0-32.693,0-49.005h36.685v8.961h-27.514v11.271h26.533v8.611h-26.533
		v11.062h27.514V316.586z"/>
	<path fill="#666766" d="M431.349,267.511h9.241v49.075h-5.741v0.07l-25.763-33.113v33.043h-9.24v-49.005h7.49l24.013,30.383
		V267.511z"/>
	<path fill="#666766" d="M485.459,279.553c-3.29-3.15-8.19-4.901-12.461-4.901c-10.501,0-16.872,7.981-16.872,18.062
		c0,8.051,4.69,16.381,16.872,16.381c3.851,0,7.211-0.84,11.061-3.92v-8.681h-12.531v-8.261h21.003v20.651
		c-4.831,5.531-10.922,8.821-19.532,8.821c-18.412,0-25.903-12.111-25.903-24.992c0-13.792,8.611-26.533,25.903-26.533
		c6.58,0,13.161,2.521,18.202,7.491L485.459,279.553z"/>
	<path fill="#666766" d="M500.155,316.586v-49.005h9.171v49.005H500.155z"/>
	<path fill="#666766" d="M550.209,267.511h9.24v49.075h-5.74v0.07l-25.764-33.113v33.043h-9.24v-49.005h7.49l24.014,30.383V267.511z
		"/>
	<path fill="#666766" d="M604.459,316.586h-36.684c0-16.312,0-32.693,0-49.005h36.684v8.961h-27.514v11.271h26.533v8.611h-26.533
		v11.062h27.514V316.586z"/>
	<path fill="#666766" d="M648.139,316.586h-36.684c0-16.312,0-32.693,0-49.005h36.684v8.961h-27.514v11.271h26.533v8.611h-26.533
		v11.062h27.514V316.586z"/>
	<path fill="#666766" d="M698.75,316.586h-10.992l-14.281-16.382h-8.891v16.382h-9.242v-49.075c7.771,0,15.543,0.07,23.312,0.07
		c11.553,0.069,17.643,7.771,17.643,16.241c0,6.721-3.08,13.512-12.391,15.401l14.842,16.732V316.586z M664.586,276.191v15.682
		h14.07c5.881,0,8.402-3.92,8.402-7.84c0-3.921-2.592-7.842-8.402-7.842H664.586z"/>
	<path fill="#666766" d="M702.594,316.586v-49.005h9.17v49.005H702.594z"/>
	<path fill="#666766" d="M752.646,267.511h9.242v49.075h-5.742v0.07l-25.762-33.113v33.043h-9.24v-49.005h7.49l24.012,30.383
		V267.511z"/>
	<path fill="#666766" d="M806.758,279.553c-3.291-3.15-8.191-4.901-12.461-4.901c-10.502,0-16.873,7.981-16.873,18.062
		c0,8.051,4.691,16.381,16.873,16.381c3.85,0,7.211-0.84,11.061-3.92v-8.681h-12.531v-8.261h21.002v20.651
		c-4.83,5.531-10.922,8.821-19.531,8.821c-18.412,0-25.904-12.111-25.904-24.992c0-13.792,8.611-26.533,25.904-26.533
		c6.58,0,13.16,2.521,18.201,7.491L806.758,279.553z"/>
</g>
<g>
	<defs>
		
			<rect id="SVGID_1_" x="41.173" y="141.281" transform="matrix(0.7071 -0.7071 0.7071 0.7071 -94.9005 169.8255)" width="232.748" height="116.373"/>
	</defs>
	<clipPath id="SVGID_2_">
		<use xlink:href="#SVGID_1_"  overflow="visible"/>
	</clipPath>
	<g clip-path="url(#SVGID_2_)">
		<path fill="#666766" stroke="#666766" d="M113.906,160.82c1.698-1.698,3.396-3.396,5.093-5.093
			c0.185-0.141,0.372-0.274,0.548-0.423c2.84-2.393,5.688-4.778,8.508-7.198c0.396-0.341,0.67-0.201,1.023-0.025
			c5.914,2.954,11.83,5.902,17.738,8.864c0.353,0.176,0.602,0.173,0.947-0.038c8.636-5.262,17.862-9.105,27.695-11.477
			c0.436-0.104,0.629-0.305,0.768-0.723c2.083-6.275,4.19-12.543,6.273-18.819c0.135-0.403,0.307-0.572,0.743-0.629
			c10.233-1.338,20.465-1.344,30.7-0.006c0.449,0.059,0.647,0.213,0.791,0.647c2.082,6.278,4.188,12.546,6.273,18.821
			c0.129,0.389,0.303,0.594,0.721,0.694c9.852,2.379,19.097,6.232,27.749,11.504c0.352,0.214,0.603,0.191,0.945,0.019
			c5.911-2.961,11.827-5.909,17.739-8.864c0.362-0.181,0.634-0.288,1.025,0.043c2.229,1.888,4.537,3.687,6.733,5.609
			c5.526,4.833,10.454,10.231,14.94,16.039c0.334,0.433,0.32,0.721,0.096,1.169c-2.957,5.891-5.89,11.793-8.844,17.684
			c-0.19,0.379-0.172,0.636,0.047,0.997c5.254,8.639,9.098,17.866,11.473,27.699c0.102,0.413,0.299,0.595,0.69,0.725
			c6.295,2.093,12.581,4.208,18.874,6.298c0.387,0.128,0.536,0.304,0.59,0.709c1.346,10.252,1.348,20.503,0.005,30.757
			c-0.056,0.436-0.223,0.608-0.627,0.743c-6.294,2.092-12.581,4.204-18.874,6.296c-0.375,0.125-0.557,0.298-0.652,0.69
			c-2.373,9.833-6.209,19.062-11.467,27.701c-0.23,0.383-0.237,0.655-0.041,1.049c2.957,5.891,5.893,11.793,8.842,17.686
			c0.195,0.391,0.275,0.669-0.066,1.073c-1.877,2.212-3.707,4.464-5.566,6.693c-0.653,0.786-1.344,1.544-2.018,2.315
			c-1.697,1.697-3.395,3.396-5.092,5.093c-0.17,0.127-0.345,0.246-0.507,0.382c-2.854,2.406-5.715,4.805-8.549,7.234
			c-0.397,0.342-0.668,0.209-1.024,0.031c-5.913-2.955-11.828-5.9-17.736-8.863c-0.351-0.175-0.602-0.177-0.947,0.035
			c-8.635,5.26-17.86,9.104-27.693,11.479c-0.43,0.103-0.633,0.294-0.771,0.716c-2.075,6.259-4.174,12.508-6.254,18.766
			c-0.141,0.429-0.324,0.633-0.814,0.698c-10.214,1.331-20.426,1.334-30.64-0.006c-0.441-0.059-0.65-0.199-0.797-0.641
			c-2.086-6.296-4.202-12.581-6.292-18.875c-0.127-0.382-0.314-0.55-0.698-0.642c-9.851-2.379-19.097-6.229-27.748-11.501
			c-0.347-0.211-0.597-0.206-0.944-0.03c-5.928,2.969-11.864,5.922-17.789,8.893c-0.395,0.197-0.654,0.211-1.02-0.096
			c-2.174-1.833-4.38-3.627-6.564-5.448c-0.83-0.691-1.629-1.421-2.441-2.133c-1.697-1.699-3.396-3.396-5.094-5.094
			c-0.193-0.239-0.379-0.483-0.578-0.718c-2.329-2.767-4.652-5.54-7.002-8.291c-0.31-0.362-0.295-0.623-0.096-1.017
			c2.969-5.927,5.923-11.862,8.893-17.789c0.174-0.349,0.179-0.599-0.033-0.945c-5.264-8.635-9.109-17.86-11.481-27.693
			c-0.104-0.429-0.292-0.633-0.715-0.774c-6.276-2.081-12.544-4.189-18.821-6.27c-0.441-0.146-0.584-0.354-0.642-0.797
			c-1.339-10.215-1.338-20.425-0.005-30.641c0.064-0.492,0.273-0.672,0.701-0.813c6.256-2.08,12.506-4.178,18.766-6.254
			c0.422-0.14,0.61-0.344,0.714-0.774c2.372-9.832,6.218-19.058,11.479-27.692c0.213-0.347,0.207-0.599,0.031-0.946
			c-2.959-5.91-5.906-11.826-8.864-17.736c-0.196-0.392-0.272-0.67,0.067-1.072c1.865-2.198,3.682-4.437,5.527-6.65
			C112.516,162.376,113.219,161.605,113.906,160.82z M254.758,184.287c-31.017-31.01-81.092-31.019-112.277-0.02
			c-31.029,30.844-31.037,81.306-0.018,112.321c31.008,31.004,81.084,31.014,112.279,0.019
			C285.775,265.777,285.782,215.308,254.758,184.287z"/>
	</g>
</g>
<g>
	<defs>
		
			<rect id="SVGID_3_" x="127.16" y="227.266" transform="matrix(-0.7071 0.7071 -0.7071 -0.7071 617.5826 315.0941)" width="232.747" height="116.374"/>
	</defs>
	<clipPath id="SVGID_4_">
		<use xlink:href="#SVGID_3_"  overflow="visible"/>
	</clipPath>
	<g clip-path="url(#SVGID_4_)">
		<path fill="#EE2B2F" d="M287.174,324.1c-1.699,1.699-3.396,3.396-5.093,5.095c-0.185,0.141-0.374,0.272-0.55,0.421
			c-2.838,2.395-5.686,4.779-8.506,7.199c-0.398,0.341-0.67,0.201-1.023,0.025c-5.914-2.953-11.83-5.902-17.74-8.864
			c-0.351-0.176-0.6-0.174-0.945,0.038c-8.635,5.262-17.863,9.105-27.695,11.477c-0.436,0.105-0.629,0.306-0.769,0.724
			c-2.083,6.274-4.189,12.544-6.272,18.818c-0.135,0.403-0.307,0.572-0.744,0.63c-10.233,1.338-20.464,1.344-30.699,0.006
			c-0.449-0.059-0.648-0.215-0.791-0.647c-2.082-6.278-4.188-12.547-6.274-18.821c-0.128-0.39-0.302-0.593-0.721-0.695
			c-9.853-2.378-19.096-6.231-27.748-11.504c-0.353-0.215-0.603-0.189-0.946-0.018c-5.91,2.961-11.826,5.908-17.738,8.864
			c-0.363,0.181-0.635,0.287-1.025-0.044c-2.229-1.888-4.537-3.687-6.733-5.609c-5.526-4.832-10.454-10.23-14.942-16.039
			c-0.332-0.432-0.319-0.721-0.094-1.168c2.956-5.892,5.889-11.793,8.844-17.686c0.189-0.378,0.172-0.635-0.047-0.996
			c-5.254-8.639-9.099-17.865-11.473-27.7c-0.101-0.412-0.299-0.594-0.691-0.724c-6.294-2.093-12.58-4.207-18.873-6.299
			c-0.387-0.128-0.536-0.304-0.59-0.709c-1.347-10.251-1.348-20.502-0.005-30.757c0.056-0.435,0.222-0.608,0.626-0.743
			c6.295-2.092,12.582-4.203,18.875-6.296c0.374-0.124,0.558-0.298,0.652-0.69c2.373-9.833,6.209-19.062,11.466-27.701
			c0.231-0.382,0.237-0.656,0.042-1.049c-2.957-5.891-5.893-11.792-8.842-17.686c-0.195-0.389-0.275-0.669,0.065-1.073
			c1.878-2.212,3.708-4.464,5.566-6.692c0.653-0.786,1.344-1.544,2.018-2.316c1.697-1.698,3.395-3.395,5.093-5.094
			c0.17-0.126,0.346-0.245,0.506-0.38c2.854-2.407,5.716-4.806,8.55-7.236c0.396-0.34,0.669-0.208,1.024-0.03
			c5.912,2.955,11.828,5.9,17.736,8.863c0.351,0.175,0.602,0.177,0.946-0.035c8.636-5.26,17.861-9.104,27.693-11.479
			c0.431-0.104,0.634-0.295,0.772-0.716c2.075-6.258,4.173-12.508,6.253-18.766c0.142-0.428,0.325-0.633,0.814-0.698
			c10.215-1.331,20.426-1.334,30.641,0.006c0.44,0.059,0.649,0.2,0.796,0.641c2.087,6.295,4.202,12.58,6.292,18.874
			c0.128,0.382,0.315,0.55,0.699,0.643c9.851,2.377,19.097,6.228,27.747,11.5c0.348,0.211,0.598,0.206,0.945,0.031
			c5.928-2.969,11.863-5.922,17.789-8.893c0.395-0.197,0.653-0.211,1.02,0.096c2.173,1.833,4.379,3.626,6.564,5.448
			c0.829,0.691,1.628,1.42,2.441,2.134c1.697,1.698,3.395,3.396,5.094,5.094c0.192,0.238,0.38,0.482,0.576,0.716
			c2.331,2.768,4.654,5.541,7.004,8.292c0.31,0.362,0.295,0.623,0.097,1.018c-2.97,5.926-5.925,11.861-8.894,17.788
			c-0.175,0.349-0.178,0.599,0.033,0.945c5.264,8.634,9.109,17.86,11.48,27.694c0.105,0.429,0.293,0.633,0.715,0.773
			c6.277,2.081,12.545,4.19,18.822,6.27c0.441,0.146,0.584,0.354,0.641,0.797c1.338,10.214,1.338,20.425,0.005,30.64
			c-0.064,0.492-0.272,0.673-0.7,0.815c-6.257,2.079-12.508,4.179-18.766,6.253c-0.422,0.14-0.611,0.344-0.714,0.774
			c-2.374,9.831-6.218,19.058-11.481,27.691c-0.213,0.348-0.205,0.6-0.031,0.946c2.961,5.91,5.908,11.825,8.866,17.737
			c0.196,0.391,0.272,0.67-0.067,1.072c-1.865,2.198-3.682,4.437-5.528,6.65C288.563,322.544,287.861,323.316,287.174,324.1z
			 M146.322,300.634c31.017,31.01,81.09,31.019,112.276,0.02c31.031-30.844,31.038-81.306,0.019-112.322
			c-31.008-31.004-81.084-31.012-112.281-0.019C115.305,219.144,115.297,269.613,146.322,300.634z"/>
	</g>
</g>
<polygon fill="#666766" stroke="#666766" points="166.5,160.678 160.382,158.5 144.5,158.5 144.5,101.5 160.382,101.5 
	166.5,108.173 "/>
<polygon fill="#666766" stroke="#666766" points="189.5,66.5 189.5,64.5 179.5,64.5 179.5,66.5 176.112,66.5 170.5,73.182 
	170.5,153.28 176.112,150.5 191.5,150.5 191.5,66.5 "/>
<polygon fill="#666766" stroke="#666766" points="233.5,164.678 235.232,156.5 222.5,154.5 222.5,97.893 233.5,105.892 
	233.5,124.087 "/>
<polygon fill="#666766" stroke="#666766" points="235.5,157.941 238.117,156.5 245.5,156.5 245.5,123.5 238.117,123.5 
	235.5,127.651 "/>
<line fill="none" stroke="#666766" x1="225.5" y1="90" x2="225.5" y2="106"/>
<line fill="none" stroke="#666766" x1="228.5" y1="95" x2="228.5" y2="104"/>
<polygon fill="#666766" stroke="#666766" points="217.5,94.934 215.5,94.942 215.5,92.5 214.5,92.5 214.5,89.5 207.5,89.5 
	207.5,92.5 206.5,92.5 206.5,95.078 204.5,95.093 204.5,143.682 204.5,152.5 217.5,152.5 217.5,111.49 "/>
<polygon fill="#666766" points="212.393,83.59 212.311,77.815 211.553,73.086 211.236,68.799 210.915,73.086 210.141,77.815 
	209.853,83.59 209.229,84.418 209.098,86.018 208.844,88.197 208.238,90 211.246,90 214.111,90 213.482,88.271 213.125,85.961 
	213,84.471 "/>
<polygon fill="#666766" stroke="#666766" points="188.5,141.744 191.927,140.5 199.5,140.5 199.5,107.5 191.927,107.5 
	188.5,111.454 "/>
<polyline fill="none" stroke="#EE2B2F" stroke-width="7" stroke-linecap="round" stroke-linejoin="round" points="168.5,375 
	168.5,355 158.5,344 158.5,317 "/>
<polyline fill="none" stroke="#EE2B2F" stroke-width="7" stroke-linecap="round" points="192.5,408 192.5,381.111 192.5,381.111 
	183.5,372.994 183.5,327 "/>
<polyline fill="none" stroke="#EE2B2F" stroke-width="7" stroke-linecap="round" points="211.5,390 211.5,372 211.713,371.787 
	220.5,364 220.5,349 220.5,349 220.5,339 216.916,335.666 "/>
<circle fill="none" stroke="#EE2B2F" stroke-width="5" stroke-linecap="round" cx="168.667" cy="383.167" r="6"/>
<circle fill="none" stroke="#EE2B2F" stroke-width="5" stroke-linecap="round" cx="192.667" cy="415.167" r="6"/>
<circle fill="none" stroke="#EE2B2F" stroke-width="5" stroke-linecap="round" cx="211.667" cy="397.167" r="6"/>
<circle fill="none" stroke="#EE2B2F" stroke-width="5" stroke-linecap="round" cx="234.667" cy="373.167" r="6"/>
<line fill="none" stroke="#EE2B2F" stroke-width="7" stroke-linecap="round" x1="234.5" y1="333" x2="234.5" y2="365"/>
<g>
	<g>
		<path fill="#EE2B2F" d="M193.355,204.462c0-6.269-1.025-10.444-3.076-12.524c-2.052-2.079-6.271-3.208-12.656-3.384v-3.604h49.922
			v3.604c-6.387,0.176-10.605,1.305-12.656,3.384c-2.052,2.081-3.076,6.255-3.076,12.524v79.716c0,6.213,1.024,10.387,3.076,12.525
			c2.051,2.139,6.27,3.295,12.656,3.471v3.604h-49.922v-3.604c6.328-0.057,10.532-1.098,12.612-3.119
			c2.079-2.021,3.12-6.312,3.12-12.877V204.462z"/>
	</g>
</g>
</svg>
